<svg width="200" height="200" viewBox="0 0 200 200" fill="none" xmlns="http://www.w3.org/2000/svg">
<g clip-path="url(#clip0_16_3)">
<path fill-rule="evenodd" clip-rule="evenodd" d="M100 200C155.228 200 200 155.228 200 100C200 44.7715 155.228 0 100 0C44.7715 0 0 44.7715 0 100C0 155.228 44.7715 200 100 200ZM100 193.333C151.547 193.333 193.333 151.547 193.333 100C193.333 48.4534 151.547 6.66667 100 6.66667C48.4534 6.66667 6.66663 48.4534 6.66663 100C6.66663 151.547 48.4534 193.333 100 193.333Z" fill="#D9D9D9"/>
<path fill-rule="evenodd" clip-rule="evenodd" d="M112.878 50H98.9553L94.6066 68.3846H62.1192L58.2821 90.2308L88.6134 90.4615L84.6301 109.577H53.6776L49 131.192H79.9208L75.7865 150H93.4371L93.4851 148.681L96.9454 131.192L150.336 132L152.236 109.577H101.258L105.022 90.2308L152.236 90.4615L156 68.3846H109.334L112.878 50Z" fill="#408BD6"/>
<path d="M98.9553 50V49.5H98.5597L98.4687 49.8849L98.9553 50ZM112.878 50L113.369 50.0947L113.484 49.5H112.878V50ZM94.6066 68.3846V68.8846H95.0021L95.0931 68.4997L94.6066 68.3846ZM62.1192 68.3846V67.8846H61.6994L61.6267 68.2981L62.1192 68.3846ZM58.2821 90.2308L57.7896 90.1443L57.6874 90.7263L58.2783 90.7308L58.2821 90.2308ZM88.6134 90.4615L89.1029 90.5635L89.2273 89.9662L88.6172 89.9616L88.6134 90.4615ZM84.6301 109.577V110.077H85.0367L85.1196 109.679L84.6301 109.577ZM53.6776 109.577V109.077H53.2742L53.1889 109.471L53.6776 109.577ZM49 131.192L48.5113 131.087L48.3802 131.692H49V131.192ZM79.9208 131.192L80.4092 131.3L80.5427 130.692H79.9208V131.192ZM75.7865 150L75.2982 149.893L75.1647 150.5H75.7865V150ZM93.4371 150V150.5H93.9193L93.9368 150.018L93.4371 150ZM93.4851 148.681L92.9946 148.584L92.9868 148.623L92.9854 148.663L93.4851 148.681ZM96.9454 131.192L96.9529 130.692L96.5358 130.686L96.4549 131.095L96.9454 131.192ZM150.336 132L150.328 132.5L150.795 132.507L150.834 132.042L150.336 132ZM152.236 109.577L152.734 109.619L152.78 109.077H152.236V109.577ZM101.258 109.577L100.767 109.481L100.651 110.077H101.258V109.577ZM105.022 90.2308L105.024 89.7308L104.61 89.7288L104.531 90.1353L105.022 90.2308ZM152.236 90.4615L152.234 90.9615L152.658 90.9636L152.729 90.5456L152.236 90.4615ZM156 68.3846L156.493 68.4687L156.592 67.8846H156V68.3846ZM109.334 68.3846L108.843 68.29L108.728 68.8846H109.334V68.3846ZM98.9553 50.5H112.878V49.5H98.9553V50.5ZM95.0931 68.4997L99.4418 50.1151L98.4687 49.8849L94.12 68.2695L95.0931 68.4997ZM62.1192 68.8846H94.6066V67.8846H62.1192V68.8846ZM58.7746 90.3173L62.6117 68.4711L61.6267 68.2981L57.7896 90.1443L58.7746 90.3173ZM88.6172 89.9616L58.2859 89.7308L58.2783 90.7308L88.6096 90.9615L88.6172 89.9616ZM85.1196 109.679L89.1029 90.5635L88.1239 90.3595L84.1406 109.475L85.1196 109.679ZM53.6776 110.077H84.6301V109.077H53.6776V110.077ZM49.4887 131.298L54.1663 109.683L53.1889 109.471L48.5113 131.087L49.4887 131.298ZM79.9208 130.692H49V131.692H79.9208V130.692ZM76.2748 150.107L80.4092 131.3L79.4325 131.085L75.2982 149.893L76.2748 150.107ZM93.4371 149.5H75.7865V150.5H93.4371V149.5ZM92.9854 148.663L92.9374 149.982L93.9368 150.018L93.9847 148.699L92.9854 148.663ZM96.4549 131.095L92.9946 148.584L93.9755 148.778L97.4358 131.289L96.4549 131.095ZM150.343 131.5L96.9529 130.692L96.9378 131.692L150.328 132.5L150.343 131.5ZM151.738 109.535L149.838 131.958L150.834 132.042L152.734 109.619L151.738 109.535ZM101.258 110.077H152.236V109.077H101.258V110.077ZM104.531 90.1353L100.767 109.481L101.748 109.672L105.512 90.3263L104.531 90.1353ZM152.238 89.9615L105.024 89.7308L105.019 90.7308L152.234 90.9615L152.238 89.9615ZM155.507 68.3006L151.743 90.3775L152.729 90.5456L156.493 68.4687L155.507 68.3006ZM109.334 68.8846H156V67.8846H109.334V68.8846ZM112.387 49.9053L108.843 68.29L109.825 68.4793L113.369 50.0947L112.387 49.9053Z" fill="black"/>
<path fill-rule="evenodd" clip-rule="evenodd" d="M25 150L44.6124 50H98.7081L98.6901 50.077H98.6722L98.4929 50.9207L94.3977 68.4332H62.5006L58.8368 90.3226H88.5787L84.6993 109.677H54.3108L49.7849 131.106H81.4451L77.4282 150L25 150ZM93.1818 150H139.873L143.8 149.536L147.945 148.376L151.873 146.752L155.145 145.128L157.545 143.735L159.073 142.343L162.127 139.327L164.964 135.847L166.927 132.367L168.455 129.118L169.327 126.566L170.2 121.926V119.374L169.982 114.965L169.109 111.717L167.8 109.165L165.618 105.916L162.782 103.364L159.727 101.276L157.327 100.116L154.273 98.9559L152.527 98.4919L151.873 98.0278L155.364 97.3318L158.418 96.1717L161.909 94.5476L164.745 92.6914L168.891 88.9791L171.727 85.0348L173.255 81.7865C173.473 80.8585 173.953 78.9559 174.127 78.7703C174.302 78.5847 174.636 76.8368 174.782 75.9861L175 72.0418L174.345 68.5615L173.691 65.5452L172.382 61.8329L169.982 58.3527L168.236 56.4965L165.836 54.6404L163.218 53.2483L160.6 52.3202L157.327 50.9281L153.182 50.232L112.382 50L112.367 50.077H112.524L93.1818 150ZM136.287 109.846H123.53L118.158 131.692H133.378L138.525 131.08L140.987 130.467L142.33 129.651L143.225 128.834L144.345 128.017L145.911 126.588L147.254 124.751L147.702 123.73L148.373 121.892V120.871V120.055L148.149 118.83L147.702 116.992L147.254 115.767L146.583 114.338L145.911 113.725L144.792 112.909L143.673 112.092L142.554 111.479L141.211 110.663L139.421 110.254L136.287 109.846ZM130.9 68.8185L126.34 90.0769H136.703L138.983 89.6431L141.47 89.2093L144.165 88.3416L145.823 87.2569L147.274 85.9554L148.932 83.7862L149.968 80.9662L150.383 78.7969V77.2785V75.9769L149.968 74.6754L148.932 73.1569L147.688 71.8554L146.445 70.5539L144.579 69.6862L142.507 68.8185L140.227 68.3846H131.107L130.9 68.8185Z" fill="white"/>
<path d="M44.6124 50V49.5H44.2009L44.1217 49.9038L44.6124 50ZM25 150L24.5093 149.904L24.3924 150.5L25 150.5L25 150ZM98.7081 50L99.195 50.1139L99.3386 49.5H98.7081V50ZM98.6901 50.077V50.577H99.0867L99.177 50.1908L98.6901 50.077ZM98.6722 50.077V49.577H98.2674L98.1832 49.973L98.6722 50.077ZM98.4929 50.9207L98.9798 51.0345L98.9819 51.0246L98.4929 50.9207ZM94.3977 68.4332V68.9332H94.7943L94.8846 68.547L94.3977 68.4332ZM62.5006 68.4332V67.9332H62.0774L62.0075 68.3506L62.5006 68.4332ZM58.8368 90.3226L58.3436 90.24L58.2461 90.8226H58.8368V90.3226ZM88.5787 90.3226L89.0689 90.4208L89.1888 89.8226H88.5787V90.3226ZM84.6993 109.677V110.177H85.109L85.1895 109.776L84.6993 109.677ZM54.3108 109.677V109.177H53.9054L53.8216 109.574L54.3108 109.677ZM49.7849 131.106L49.2957 131.003L49.1683 131.606H49.7849V131.106ZM81.4451 131.106L81.9342 131.21L82.0626 130.606H81.4451V131.106ZM77.4282 150L77.4282 150.5L77.8331 150.5L77.9173 150.104L77.4282 150ZM93.1818 150L92.6909 149.905L92.5757 150.5H93.1818V150ZM139.873 150V150.5H139.902L139.931 150.497L139.873 150ZM143.8 149.536L143.859 150.033L143.897 150.028L143.935 150.017L143.8 149.536ZM147.945 148.376L148.08 148.857L148.109 148.849L148.137 148.838L147.945 148.376ZM151.873 146.752L152.064 147.214L152.08 147.207L152.095 147.2L151.873 146.752ZM155.145 145.128L155.368 145.575L155.382 145.568L155.396 145.56L155.145 145.128ZM157.545 143.735L157.796 144.168L157.843 144.141L157.882 144.105L157.545 143.735ZM159.073 142.343L159.41 142.713L159.417 142.706L159.424 142.699L159.073 142.343ZM162.127 139.327L162.479 139.683L162.498 139.664L162.515 139.643L162.127 139.327ZM164.964 135.847L165.351 136.163L165.378 136.13L165.399 136.093L164.964 135.847ZM166.927 132.367L167.363 132.612L167.372 132.596L167.38 132.579L166.927 132.367ZM168.455 129.118L168.907 129.331L168.919 129.306L168.928 129.28L168.455 129.118ZM169.327 126.566L169.8 126.728L169.812 126.694L169.819 126.659L169.327 126.566ZM170.2 121.926L170.691 122.018L170.7 121.972V121.926H170.2ZM170.2 119.374H170.7V119.361L170.699 119.349L170.2 119.374ZM169.982 114.965L170.481 114.94L170.479 114.887L170.465 114.835L169.982 114.965ZM169.109 111.717L169.592 111.587L169.578 111.536L169.554 111.489L169.109 111.717ZM167.8 109.165L168.245 108.937L168.231 108.91L168.215 108.886L167.8 109.165ZM165.618 105.916L166.033 105.638L165.999 105.586L165.953 105.545L165.618 105.916ZM162.782 103.364L163.116 102.993L163.091 102.97L163.064 102.952L162.782 103.364ZM159.727 101.276L160.009 100.863L159.979 100.842L159.945 100.826L159.727 101.276ZM157.327 100.116L157.545 99.6658L157.525 99.6563L157.505 99.6486L157.327 100.116ZM154.273 98.9559L154.45 98.4885L154.426 98.4793L154.401 98.4727L154.273 98.9559ZM152.527 98.4919L152.238 98.8998L152.312 98.9519L152.399 98.9751L152.527 98.4919ZM151.873 98.0278L151.775 97.5375L150.637 97.7645L151.584 98.4357L151.873 98.0278ZM155.364 97.3318L155.461 97.8221L155.502 97.814L155.541 97.7992L155.364 97.3318ZM158.418 96.1717L158.596 96.6391L158.613 96.6327L158.629 96.625L158.418 96.1717ZM161.909 94.5476L162.12 95.0009L162.153 94.9857L162.183 94.9659L161.909 94.5476ZM164.745 92.6914L165.019 93.1098L165.051 93.0891L165.079 93.0639L164.745 92.6914ZM168.891 88.9791L169.224 89.3516L169.265 89.3153L169.297 89.271L168.891 88.9791ZM171.727 85.0348L172.133 85.3267L172.16 85.2893L172.18 85.2475L171.727 85.0348ZM173.255 81.7865L173.707 81.9993L173.729 81.9519L173.741 81.901L173.255 81.7865ZM174.127 78.7703L174.491 79.1128L174.492 79.1128L174.127 78.7703ZM174.782 75.9861L175.275 76.0703L175.279 76.0422L175.281 76.0137L174.782 75.9861ZM175 72.0418L175.499 72.0694L175.503 72.0089L175.491 71.9493L175 72.0418ZM174.345 68.5615L174.837 68.469L174.834 68.4555L174.345 68.5615ZM173.691 65.5452L174.18 65.4392L174.173 65.4085L174.162 65.379L173.691 65.5452ZM172.382 61.8329L172.853 61.6667L172.831 61.6039L172.793 61.5491L172.382 61.8329ZM169.982 58.3527L170.393 58.0688L170.372 58.0377L170.346 58.0101L169.982 58.3527ZM168.236 56.4965L168.601 56.154L168.573 56.1252L168.542 56.101L168.236 56.4965ZM165.836 54.6404L166.142 54.2449L166.109 54.2189L166.071 54.1989L165.836 54.6404ZM163.218 53.2483L163.453 52.8068L163.42 52.7894L163.385 52.777L163.218 53.2483ZM160.6 52.3202L160.404 52.7803L160.418 52.7863L160.433 52.7915L160.6 52.3202ZM157.327 50.9281L157.523 50.468L157.468 50.4448L157.41 50.435L157.327 50.9281ZM153.182 50.232L153.265 49.7389L153.225 49.7323L153.185 49.732L153.182 50.232ZM112.382 50L112.385 49.5L111.969 49.4976L111.891 49.9057L112.382 50ZM112.367 50.077L111.876 49.9827L111.762 50.577H112.367V50.077ZM112.524 50.077L113.015 50.172L113.13 49.577H112.524V50.077ZM123.53 109.846V109.346H123.138L123.044 109.727L123.53 109.846ZM136.287 109.846L136.352 109.35L136.32 109.346H136.287V109.846ZM118.158 131.692L117.672 131.573L117.52 132.192H118.158V131.692ZM133.378 131.692V132.192H133.407L133.437 132.189L133.378 131.692ZM138.525 131.08L138.584 131.576L138.616 131.573L138.646 131.565L138.525 131.08ZM140.987 130.467L141.108 130.952L141.182 130.934L141.247 130.894L140.987 130.467ZM142.33 129.651L142.59 130.078L142.631 130.053L142.667 130.02L142.33 129.651ZM143.225 128.834L142.931 128.43L142.909 128.446L142.889 128.465L143.225 128.834ZM144.345 128.017L144.639 128.421L144.661 128.405L144.682 128.387L144.345 128.017ZM145.911 126.588L146.248 126.957L146.285 126.924L146.315 126.883L145.911 126.588ZM147.254 124.751L147.658 125.046L147.69 125.001L147.712 124.951L147.254 124.751ZM147.702 123.73L148.16 123.93L148.166 123.916L148.171 123.901L147.702 123.73ZM148.373 121.892L148.843 122.064L148.873 121.981V121.892H148.373ZM148.373 120.055H148.873V120.009L148.865 119.965L148.373 120.055ZM148.149 118.83L148.641 118.74L148.639 118.725L148.635 118.711L148.149 118.83ZM147.702 116.992L148.188 116.874L148.181 116.847L148.171 116.82L147.702 116.992ZM147.254 115.767L147.724 115.595L147.716 115.575L147.707 115.554L147.254 115.767ZM146.583 114.338L147.035 114.125L146.993 114.035L146.92 113.968L146.583 114.338ZM145.911 113.725L146.248 113.356L146.228 113.338L146.206 113.321L145.911 113.725ZM144.792 112.909L144.497 113.313L144.497 113.313L144.792 112.909ZM143.673 112.092L143.968 111.688L143.942 111.669L143.913 111.653L143.673 112.092ZM142.554 111.479L142.294 111.907L142.304 111.913L142.314 111.918L142.554 111.479ZM141.211 110.663L141.471 110.236L141.402 110.193L141.322 110.175L141.211 110.663ZM139.421 110.254L139.532 109.767L139.509 109.762L139.485 109.759L139.421 110.254ZM126.34 90.0769L125.851 89.9721L125.721 90.5769H126.34V90.0769ZM130.9 68.8185L130.448 68.6029L130.423 68.6561L130.411 68.7136L130.9 68.8185ZM136.703 90.0769V90.5769H136.75L136.797 90.5681L136.703 90.0769ZM138.983 89.6431L138.897 89.1505L138.89 89.1519L138.983 89.6431ZM141.47 89.2093L141.556 89.7018L141.59 89.6958L141.624 89.6852L141.47 89.2093ZM144.165 88.3416L144.318 88.8175L144.382 88.7969L144.438 88.76L144.165 88.3416ZM145.823 87.2569L146.097 87.6754L146.128 87.6545L146.157 87.6291L145.823 87.2569ZM147.274 85.9554L147.608 86.3276L147.643 86.2963L147.671 86.2591L147.274 85.9554ZM148.932 83.7862L149.329 84.0898L149.375 84.0297L149.401 83.9586L148.932 83.7862ZM149.968 80.9662L150.438 81.1386L150.452 81.1002L150.459 81.06L149.968 80.9662ZM150.383 78.7969L150.874 78.8908L150.883 78.8443V78.7969H150.383ZM150.383 75.9769H150.883V75.8992L150.859 75.8252L150.383 75.9769ZM149.968 74.6754L150.445 74.5237L150.422 74.454L150.381 74.3935L149.968 74.6754ZM148.932 73.1569L149.345 72.8751L149.322 72.8412L149.293 72.8115L148.932 73.1569ZM147.688 71.8554L148.05 71.51L148.05 71.51L147.688 71.8554ZM146.445 70.5539L146.806 70.2085L146.741 70.1403L146.656 70.1005L146.445 70.5539ZM144.579 69.6862L144.79 69.2328L144.781 69.2287L144.772 69.225L144.579 69.6862ZM142.507 68.8185L142.7 68.3573L142.651 68.3371L142.6 68.3273L142.507 68.8185ZM140.227 68.3846L140.32 67.8935L140.274 67.8846H140.227V68.3846ZM131.107 68.3846V67.8846H130.792L130.656 68.1691L131.107 68.3846ZM44.1217 49.9038L24.5093 149.904L25.4907 150.096L45.1031 50.0962L44.1217 49.9038ZM98.7081 49.5H44.6124V50.5H98.7081V49.5ZM99.177 50.1908L99.195 50.1139L98.2213 49.8861L98.2033 49.9631L99.177 50.1908ZM98.6722 50.577H98.6901V49.577H98.6722V50.577ZM98.9819 51.0246L99.1613 50.1809L98.1832 49.973L98.0038 50.8167L98.9819 51.0246ZM94.8846 68.547L98.9797 51.0345L98.006 50.8068L93.9109 68.3193L94.8846 68.547ZM62.5006 68.9332H94.3977V67.9332H62.5006V68.9332ZM59.3299 90.4051L62.9938 68.5157L62.0075 68.3506L58.3436 90.24L59.3299 90.4051ZM88.5787 89.8226H58.8368V90.8226H88.5787V89.8226ZM85.1895 109.776L89.0689 90.4208L88.0884 90.2243L84.209 109.579L85.1895 109.776ZM54.3108 110.177H84.6993V109.177H54.3108V110.177ZM50.2741 131.209L54.8 109.781L53.8216 109.574L49.2957 131.003L50.2741 131.209ZM81.4451 130.606H49.7849V131.606H81.4451V130.606ZM77.9173 150.104L81.9342 131.21L80.9561 131.002L76.9391 149.896L77.9173 150.104ZM25 150.5L77.4282 150.5L77.4282 149.5L25 149.5L25 150.5ZM93.1818 150.5H139.873V149.5H93.1818V150.5ZM139.931 150.497L143.859 150.033L143.741 149.039L139.814 149.503L139.931 150.497ZM143.935 150.017L148.08 148.857L147.811 147.894L143.665 149.054L143.935 150.017ZM148.137 148.838L152.064 147.214L151.682 146.29L147.754 147.914L148.137 148.838ZM152.095 147.2L155.368 145.575L154.923 144.68L151.65 146.304L152.095 147.2ZM155.396 145.56L157.796 144.168L157.295 143.303L154.895 144.695L155.396 145.56ZM157.882 144.105L159.41 142.713L158.736 141.974L157.209 143.366L157.882 144.105ZM159.424 142.699L162.479 139.683L161.776 138.971L158.721 141.988L159.424 142.699ZM162.515 139.643L165.351 136.163L164.576 135.531L161.74 139.011L162.515 139.643ZM165.399 136.093L167.363 132.612L166.492 132.121L164.528 135.601L165.399 136.093ZM167.38 132.579L168.907 129.331L168.002 128.906L166.475 132.154L167.38 132.579ZM168.928 129.28L169.8 126.728L168.854 126.404L167.981 128.957L168.928 129.28ZM169.819 126.659L170.691 122.018L169.709 121.833L168.836 126.474L169.819 126.659ZM170.7 121.926V119.374H169.7V121.926H170.7ZM170.699 119.349L170.481 114.94L169.482 114.99L169.701 119.398L170.699 119.349ZM170.465 114.835L169.592 111.587L168.626 111.847L169.499 115.095L170.465 114.835ZM169.554 111.489L168.245 108.937L167.355 109.393L168.664 111.945L169.554 111.489ZM168.215 108.886L166.033 105.638L165.203 106.195L167.385 109.444L168.215 108.886ZM165.953 105.545L163.116 102.993L162.447 103.736L165.284 106.288L165.953 105.545ZM163.064 102.952L160.009 100.863L159.445 101.689L162.5 103.777L163.064 102.952ZM159.945 100.826L157.545 99.6658L157.11 100.566L159.51 101.726L159.945 100.826ZM157.505 99.6486L154.45 98.4885L154.095 99.4233L157.15 100.583L157.505 99.6486ZM154.401 98.4727L152.656 98.0087L152.399 98.9751L154.144 99.4391L154.401 98.4727ZM152.816 98.084L152.162 97.6199L151.584 98.4357L152.238 98.8998L152.816 98.084ZM151.97 98.5182L155.461 97.8221L155.266 96.8414L151.775 97.5375L151.97 98.5182ZM155.541 97.7992L158.596 96.6391L158.241 95.7043L155.186 96.8644L155.541 97.7992ZM158.629 96.625L162.12 95.0009L161.698 94.0942L158.207 95.7184L158.629 96.625ZM162.183 94.9659L165.019 93.1098L164.472 92.273L161.635 94.1292L162.183 94.9659ZM165.079 93.0639L169.224 89.3516L168.557 88.6066L164.412 92.3189L165.079 93.0639ZM169.297 89.271L172.133 85.3267L171.321 84.7429L168.485 88.6872L169.297 89.271ZM172.18 85.2475L173.707 81.9993L172.802 81.5738L171.275 84.8221L172.18 85.2475ZM173.741 81.901C173.849 81.4407 174.022 80.7395 174.189 80.1326C174.273 79.8283 174.353 79.554 174.422 79.3474C174.457 79.2435 174.486 79.1642 174.509 79.1098C174.543 79.03 174.54 79.0617 174.491 79.1128L173.763 78.4278C173.671 78.5253 173.615 78.6571 173.588 78.7205C173.551 78.8093 173.512 78.9163 173.474 79.0313C173.396 79.2627 173.311 79.5568 173.225 79.8674C173.054 80.4902 172.878 81.2043 172.768 81.6721L173.741 81.901ZM174.492 79.1128C174.588 79.0106 174.641 78.8768 174.666 78.8135C174.7 78.7259 174.732 78.6226 174.763 78.5142C174.826 78.2958 174.891 78.0214 174.954 77.7342C175.08 77.158 175.201 76.5004 175.275 76.0703L174.289 75.9018C174.217 76.3225 174.098 76.9642 173.977 77.521C173.916 77.8003 173.856 78.0508 173.802 78.239C173.775 78.3338 173.752 78.4042 173.734 78.4511C173.706 78.5222 173.711 78.4836 173.763 78.4278L174.492 79.1128ZM175.281 76.0137L175.499 72.0694L174.501 72.0141L174.283 75.9585L175.281 76.0137ZM175.491 71.9493L174.837 68.4691L173.854 68.6539L174.509 72.1342L175.491 71.9493ZM174.834 68.4555L174.18 65.4392L173.202 65.6513L173.857 68.6675L174.834 68.4555ZM174.162 65.379L172.853 61.6667L171.91 61.9992L173.219 65.7115L174.162 65.379ZM172.793 61.5491L170.393 58.0688L169.57 58.6365L171.97 62.1168L172.793 61.5491ZM170.346 58.0101L168.601 56.154L167.872 56.839L169.618 58.6952L170.346 58.0101ZM168.542 56.101L166.142 54.2449L165.53 55.0359L167.93 56.892L168.542 56.101ZM166.071 54.1989L163.453 52.8068L162.983 53.6897L165.602 55.0818L166.071 54.1989ZM163.385 52.777L160.767 51.8489L160.433 52.7915L163.051 53.7195L163.385 52.777ZM160.796 51.8601L157.523 50.468L157.132 51.3882L160.404 52.7803L160.796 51.8601ZM157.41 50.435L153.265 49.7389L153.099 50.7251L157.244 51.4212L157.41 50.435ZM153.185 49.732L112.385 49.5L112.379 50.5L153.179 50.732L153.185 49.732ZM111.891 49.9057L111.876 49.9827L112.858 50.1713L112.873 50.0943L111.891 49.9057ZM112.367 50.577H112.524V49.577H112.367V50.577ZM112.033 49.9819L92.6909 149.905L93.6727 150.095L113.015 50.172L112.033 49.9819ZM123.53 110.346H136.287V109.346H123.53V110.346ZM118.643 131.812L124.015 109.966L123.044 109.727L117.672 131.573L118.643 131.812ZM133.378 131.192H118.158V132.192H133.378V131.192ZM138.466 130.583L133.318 131.196L133.437 132.189L138.584 131.576L138.466 130.583ZM140.867 129.982L138.405 130.595L138.646 131.565L141.108 130.952L140.867 129.982ZM142.07 129.223L140.728 130.04L141.247 130.894L142.59 130.078L142.07 129.223ZM142.889 128.465L141.993 129.281L142.667 130.02L143.562 129.203L142.889 128.465ZM144.05 127.613L142.931 128.43L143.52 129.238L144.639 128.421L144.05 127.613ZM145.574 126.219L144.008 127.648L144.682 128.387L146.248 126.957L145.574 126.219ZM146.851 124.455L145.508 126.293L146.315 126.883L147.658 125.046L146.851 124.455ZM147.244 123.529L146.796 124.55L147.712 124.951L148.16 123.93L147.244 123.529ZM147.904 121.721L147.232 123.558L148.171 123.901L148.843 122.064L147.904 121.721ZM147.873 120.871V121.892H148.873V120.871H147.873ZM147.873 120.055V120.871H148.873V120.055H147.873ZM147.658 118.919L147.881 120.144L148.865 119.965L148.641 118.74L147.658 118.919ZM147.216 117.11L147.664 118.948L148.635 118.711L148.188 116.874L147.216 117.11ZM146.785 115.939L147.232 117.164L148.171 116.82L147.724 115.595L146.785 115.939ZM146.13 114.55L146.802 115.98L147.707 115.554L147.035 114.125L146.13 114.55ZM145.574 114.095L146.246 114.707L146.92 113.968L146.248 113.356L145.574 114.095ZM144.497 113.313L145.617 114.129L146.206 113.321L145.087 112.505L144.497 113.313ZM143.378 112.496L144.497 113.313L145.087 112.505L143.968 111.688L143.378 112.496ZM142.314 111.918L143.433 112.531L143.913 111.653L142.794 111.041L142.314 111.918ZM140.951 111.09L142.294 111.907L142.814 111.052L141.471 110.236L140.951 111.09ZM139.309 110.742L141.1 111.15L141.322 110.175L139.532 109.767L139.309 110.742ZM136.223 110.342L139.356 110.75L139.485 109.759L136.352 109.35L136.223 110.342ZM126.829 90.1818L131.388 68.9233L130.411 68.7136L125.851 89.9721L126.829 90.1818ZM136.703 89.5769H126.34V90.5769H136.703V89.5769ZM138.89 89.1519L136.61 89.5858L136.797 90.5681L139.077 90.1343L138.89 89.1519ZM141.384 88.7167L138.897 89.1505L139.069 90.1357L141.556 89.7018L141.384 88.7167ZM144.011 87.8656L141.317 88.7333L141.624 89.6852L144.318 88.8175L144.011 87.8656ZM145.549 86.8385L143.891 87.9231L144.438 88.76L146.097 87.6754L145.549 86.8385ZM146.94 85.5832L145.489 86.8848L146.157 87.6291L147.608 86.3276L146.94 85.5832ZM148.535 83.4825L146.877 85.6518L147.671 86.2591L149.329 84.0898L148.535 83.4825ZM149.499 80.7937L148.463 83.6137L149.401 83.9586L150.438 81.1386L149.499 80.7937ZM149.892 78.7031L149.477 80.8723L150.459 81.06L150.874 78.8908L149.892 78.7031ZM149.883 77.2785V78.7969H150.883V77.2785H149.883ZM149.883 75.9769V77.2785H150.883V75.9769H149.883ZM149.492 74.8271L149.906 76.1287L150.859 75.8252L150.445 74.5237L149.492 74.8271ZM148.519 73.4388L149.555 74.9573L150.381 74.3935L149.345 72.8751L148.519 73.4388ZM147.327 72.2008L148.57 73.5024L149.293 72.8115L148.05 71.51L147.327 72.2008ZM146.083 70.8993L147.327 72.2008L148.05 71.51L146.806 70.2085L146.083 70.8993ZM144.368 70.1395L146.234 71.0072L146.656 70.1005L144.79 69.2328L144.368 70.1395ZM142.314 69.2797L144.386 70.1474L144.772 69.225L142.7 68.3573L142.314 69.2797ZM140.133 68.8758L142.413 69.3097L142.6 68.3273L140.32 67.8935L140.133 68.8758ZM131.107 68.8846H140.227V67.8846H131.107V68.8846ZM131.351 69.034L131.558 68.6002L130.656 68.1691L130.448 68.6029L131.351 69.034Z" fill="black"/>
<path fill-rule="evenodd" clip-rule="evenodd" d="M134 69H105.547V72.2028H134V69ZM104 77.2562H132.453V80.459H104V77.2562ZM104 85.7971H132.453V89H104V85.7971Z" fill="#408BD6"/>
<path fill-rule="evenodd" clip-rule="evenodd" d="M130 111H92.0628V114.203H130V111ZM90 119.256H127.937V122.459H90V119.256ZM90 127.797H127.937V131H90V127.797Z" fill="#408BD6"/>
<path fill-rule="evenodd" clip-rule="evenodd" d="M151.048 50.0593L129.13 150H132.087L154 50.0767H151.048V50.0593ZM143.981 50L122.051 150H125.007L146.937 50H143.981ZM115 150L136.93 50H139.946L118.015 150H115Z" fill="#408BD6"/>
</g>
<defs>
<clipPath id="clip0_16_3">
<rect width="200" height="200" fill="white"/>
</clipPath>
</defs>
</svg>
