<svg width="67" height="67" viewBox="0 0 67 67" fill="none" xmlns="http://www.w3.org/2000/svg">
<rect x="0.5" y="0.5" width="66" height="66" rx="5.5" fill="#F7DF1E" stroke="#F7DF1E"/>
<path d="M46.6677 51.6C47.9436 53.5833 49.73 54.9833 52.6647 54.9833C55.2166 54.9833 56.8754 53.8167 56.8754 52.1833C56.8754 50.3167 55.2166 49.6167 52.4095 48.45L50.8783 47.8667C46.4125 46.1167 43.4777 44.0167 43.4777 39.4667C43.4777 35.2667 46.9228 32 52.4095 32C56.365 32 59.1721 33.2833 61.0861 36.55L56.365 39.35C55.3442 37.6 54.1958 36.9 52.4095 36.9C50.6231 36.9 49.4748 37.95 49.4748 39.35C49.4748 40.9833 50.6231 41.6833 53.3027 42.7333L54.8338 43.3167C60.0653 45.4167 63 47.4 63 52.1833C63 57.2 58.6617 60 52.7923 60C47.0504 60 43.3501 57.55 41.5638 54.2833L46.6677 51.6ZM24.9763 52.0667C25.997 53.5833 26.7626 54.9833 28.9318 54.9833C30.9733 54.9833 32.2493 54.2833 32.2493 51.4833V32.1167H38.3739V51.25C38.3739 57.0833 34.6736 59.65 29.1869 59.65C24.2107 59.65 21.4036 57.3167 20 54.5167L24.9763 52.0667Z" fill="white"/>
</svg>
